# xmcd
#
# Track frame offsets: 
#        150
#        9615
#        21191
#        32001
#        43960
#        56254
#        69662
#        79922
#        88287
#        101670
#        114577
#        127785
#        138853
#        150791
#        165428
#        178578
#        188824
#        202448
#        218782
#        230713
#        242596
#        250863
#        262732
#        279763
#        291820
#        302936
#        316463
#
# Disc length: 4396 seconds
#
# Revision: 0
# Processed by: cddbd v1.5.2PL0 Copyright (c) Steve Scherf et al.
# Submitted via: ExactAudioCopy v1.0b1
#
DISCID=77112a1b
DTITLE=Various Artist - Легенды музыки кантри
DYEAR=2001
DGENRE=Country
TTITLE0=Л.Флэтт и Э.Скраггс - Нечто особенное с туманной горы
TTITLE1=К.Смит - Эй, Джо
TTITLE2=Группа "Стеллер Бразерс" - Цветы на стене
TTITLE3=Б.Монро и группа "Блюграсс Бойз" - Блюз каменистой дороги
TTITLE4=Б.Уиллс и группа "Тексас Плейбойз" - Возьмите меня обратно в Т
TTITLE4=улсу
TTITLE5=Группа "Хиллбилли" - Грязное Рио Гранде
TTITLE6=Дж.Хортон - Завсегдатай забегаловки
TTITLE7=В.Нельсон - Вещи, которые нужно помнить
TTITLE8=Джим и Джесс МакРейнольдс - Когда я перестаю мечтать
TTITLE9=Дж.Бонд и группа "Парни с долины Красной реки" - Курите! Курит
TTITLE9=е! Курите!
TTITLE10=Р.Прайс - Шериф из округа Бун
TTITLE11=М.Смит, В.Нельсон - Небеса
TTITLE12=Р.Экафф - Револьверная пуля
TTITLE13=В.Нельсон - Моими героями всегда были ковбои
TTITLE14=Л.Андерсон - Я никогда вам не обещала розового сада
TTITLE15=К.Роджерс - Новый фасон
TTITLE16=Группа "Спящий за рулем" - Чу Чу Буги
TTITLE17=Рей Чарльз и оркестр п-у М.Пейча - Твое лживое сердце
TTITLE18=Дж.Кэш - Огненное кольцо
TTITLE19=С.Бруно - Ода 10-33
TTITLE20=Группа "Стетлер Бразерс" - Сахар
TTITLE21=Р.Прайс - Мои башмаки всё время шагают за тобой
TTITLE22=Группа "Хиллбилли" - Грустный и озабоченный человек
TTITLE23=К.Роджерс - Я и Бобби Мак Ги
TTITLE24=Р.Миллер - Король дороги
TTITLE25=К.Роджерс - Руби, не забирай мою любовь в город
TTITLE26=Р.Чарльз и М.Хендрикс - Ты - моё счастье
EXTD=
EXTT0=
EXTT1=
EXTT2=
EXTT3=
EXTT4=
EXTT5=
EXTT6=
EXTT7=
EXTT8=
EXTT9=
EXTT10=
EXTT11=
EXTT12=
EXTT13=
EXTT14=
EXTT15=
EXTT16=
EXTT17=
EXTT18=
EXTT19=
EXTT20=
EXTT21=
EXTT22=
EXTT23=
EXTT24=
EXTT25=
EXTT26=
PLAYORDER=
